<?xml version="1.0" encoding="UTF-8" standalone="no"?>
<!-- Created with Inkscape (http://www.inkscape.org/) -->

<svg
   xmlns:dc="http://purl.org/dc/elements/1.1/"
   xmlns:cc="http://creativecommons.org/ns#"
   xmlns:rdf="http://www.w3.org/1999/02/22-rdf-syntax-ns#"
   xmlns:svg="http://www.w3.org/2000/svg"
   xmlns="http://www.w3.org/2000/svg"
   xmlns:sodipodi="http://sodipodi.sourceforge.net/DTD/sodipodi-0.dtd"
   xmlns:inkscape="http://www.inkscape.org/namespaces/inkscape"
   width="65.293556mm"
   height="60.122349mm"
   viewBox="0 0 65.29356 60.122349"
   version="1.1"
   id="svg8"
   inkscape:version="0.92.5 (2060ec1f9f, 2020-04-08)"
   sodipodi:docname="Doppler_Effect.svg"
   inkscape:export-filename="/home/kennedy/Teaching/PY2106/Lecture_Notes/Lecture_07/Figures/Doppler_Effect.png"
   inkscape:export-xdpi="108.14221"
   inkscape:export-ydpi="108.14221">
  <defs
     id="defs2">
    <marker
       inkscape:stockid="Arrow1Mend"
       orient="auto"
       refY="0"
       refX="0"
       id="marker1332"
       style="overflow:visible"
       inkscape:isstock="true">
      <path
         id="path1078"
         d="M 0,0 5,-5 -12.5,0 5,5 Z"
         style="fill:#000000;fill-opacity:1;fill-rule:evenodd;stroke:#000000;stroke-width:1.00000003pt;stroke-opacity:1"
         transform="matrix(-0.4,0,0,-0.4,-4,0)"
         inkscape:connector-curvature="0" />
    </marker>
    <marker
       inkscape:stockid="Arrow1Send"
       orient="auto"
       refY="0"
       refX="0"
       id="marker1288"
       style="overflow:visible"
       inkscape:isstock="true">
      <path
         id="path859"
         d="M 0,0 5,-5 -12.5,0 5,5 Z"
         style="fill:#181818;fill-opacity:1;fill-rule:evenodd;stroke:#181818;stroke-width:1.00000003pt;stroke-opacity:1"
         transform="matrix(-0.2,0,0,-0.2,-1.2,0)"
         inkscape:connector-curvature="0" />
    </marker>
    <marker
       inkscape:stockid="Arrow1Mstart"
       orient="auto"
       refY="0"
       refX="0"
       id="marker1107"
       style="overflow:visible"
       inkscape:isstock="true">
      <path
         id="path850"
         d="M 0,0 5,-5 -12.5,0 5,5 Z"
         style="fill:#757575;fill-opacity:1;fill-rule:evenodd;stroke:#757575;stroke-width:1.00000003pt;stroke-opacity:1"
         transform="matrix(0.4,0,0,0.4,4,0)"
         inkscape:connector-curvature="0" />
    </marker>
    <marker
       inkscape:stockid="Arrow1Mstart"
       orient="auto"
       refY="0"
       refX="0"
       id="Arrow1Mstart"
       style="overflow:visible"
       inkscape:isstock="true">
      <path
         id="path1326"
         d="M 0,0 5,-5 -12.5,0 5,5 Z"
         style="fill:#000000;fill-opacity:1;fill-rule:evenodd;stroke:#000000;stroke-width:1.00000003pt;stroke-opacity:1"
         transform="matrix(0.4,0,0,0.4,4,0)"
         inkscape:connector-curvature="0" />
    </marker>
    <marker
       inkscape:stockid="Arrow1Mend"
       orient="auto"
       refY="0"
       refX="0"
       id="marker1602"
       style="overflow:visible"
       inkscape:isstock="true">
      <path
         id="path1600"
         d="M 0,0 5,-5 -12.5,0 5,5 Z"
         style="fill:#000000;fill-opacity:1;fill-rule:evenodd;stroke:#000000;stroke-width:1.00000003pt;stroke-opacity:1"
         transform="matrix(-0.4,0,0,-0.4,-4,0)"
         inkscape:connector-curvature="0" />
    </marker>
    <marker
       inkscape:stockid="Arrow1Mend"
       orient="auto"
       refY="0"
       refX="0"
       id="marker1586"
       style="overflow:visible"
       inkscape:isstock="true">
      <path
         id="path1584"
         d="M 0,0 5,-5 -12.5,0 5,5 Z"
         style="fill:#000000;fill-opacity:1;fill-rule:evenodd;stroke:#000000;stroke-width:1.00000003pt;stroke-opacity:1"
         transform="matrix(-0.4,0,0,-0.4,-4,0)"
         inkscape:connector-curvature="0" />
    </marker>
    <marker
       inkscape:stockid="Arrow1Mend"
       orient="auto"
       refY="0"
       refX="0"
       id="Arrow1Mend"
       style="overflow:visible"
       inkscape:isstock="true">
      <path
         id="path1329"
         d="M 0,0 5,-5 -12.5,0 5,5 Z"
         style="fill:#000000;fill-opacity:1;fill-rule:evenodd;stroke:#000000;stroke-width:1.00000003pt;stroke-opacity:1"
         transform="matrix(-0.4,0,0,-0.4,-4,0)"
         inkscape:connector-curvature="0" />
    </marker>
    <marker
       inkscape:stockid="Arrow1Send"
       orient="auto"
       refY="0"
       refX="0"
       id="Arrow1Send"
       style="overflow:visible"
       inkscape:isstock="true">
      <path
         id="path1020"
         d="M 0,0 5,-5 -12.5,0 5,5 Z"
         style="fill:#7e7e7e;fill-opacity:1;fill-rule:evenodd;stroke:#7e7e7e;stroke-width:1.00000003pt;stroke-opacity:1"
         transform="matrix(-0.2,0,0,-0.2,-1.2,0)"
         inkscape:connector-curvature="0" />
    </marker>
    <marker
       inkscape:stockid="Arrow1Sstart"
       orient="auto"
       refY="0"
       refX="0"
       id="Arrow1Sstart"
       style="overflow:visible"
       inkscape:isstock="true">
      <path
         id="path1017"
         d="M 0,0 5,-5 -12.5,0 5,5 Z"
         style="fill:#757575;fill-opacity:1;fill-rule:evenodd;stroke:#757575;stroke-width:1.00000003pt;stroke-opacity:1"
         transform="matrix(0.2,0,0,0.2,1.2,0)"
         inkscape:connector-curvature="0" />
    </marker>
    <marker
       inkscape:stockid="Arrow1Sstart"
       orient="auto"
       refY="0"
       refX="0"
       id="Arrow1Sstart-3"
       style="overflow:visible"
       inkscape:isstock="true">
      <path
         id="path1017-6"
         d="M 0,0 5,-5 -12.5,0 5,5 Z"
         style="fill:#7e7e7e;fill-opacity:1;fill-rule:evenodd;stroke:#7e7e7e;stroke-width:1.00000003pt;stroke-opacity:1"
         transform="matrix(0.2,0,0,0.2,1.2,0)"
         inkscape:connector-curvature="0" />
    </marker>
    <marker
       inkscape:stockid="Arrow1Send"
       orient="auto"
       refY="0"
       refX="0"
       id="Arrow1Send-0"
       style="overflow:visible"
       inkscape:isstock="true">
      <path
         id="path1020-6"
         d="M 0,0 5,-5 -12.5,0 5,5 Z"
         style="fill:#7e7e7e;fill-opacity:1;fill-rule:evenodd;stroke:#7e7e7e;stroke-width:1.00000003pt;stroke-opacity:1"
         transform="matrix(-0.2,0,0,-0.2,-1.2,0)"
         inkscape:connector-curvature="0" />
    </marker>
    <marker
       inkscape:stockid="Arrow1Send"
       orient="auto"
       refY="0"
       refX="0"
       id="marker1288-3"
       style="overflow:visible"
       inkscape:isstock="true">
      <path
         inkscape:connector-curvature="0"
         id="path859-6"
         d="M 0,0 5,-5 -12.5,0 5,5 Z"
         style="fill:#181818;fill-opacity:1;fill-rule:evenodd;stroke:#181818;stroke-width:1.00000003pt;stroke-opacity:1"
         transform="matrix(-0.2,0,0,-0.2,-1.2,0)" />
    </marker>
    <marker
       inkscape:stockid="Arrow1Send"
       orient="auto"
       refY="0"
       refX="0"
       id="marker1288-3-0"
       style="overflow:visible"
       inkscape:isstock="true">
      <path
         inkscape:connector-curvature="0"
         id="path859-6-9"
         d="M 0,0 5,-5 -12.5,0 5,5 Z"
         style="fill:#181818;fill-opacity:1;fill-rule:evenodd;stroke:#181818;stroke-width:1.00000003pt;stroke-opacity:1"
         transform="matrix(-0.2,0,0,-0.2,-1.2,0)" />
    </marker>
    <marker
       inkscape:stockid="Arrow1Send"
       orient="auto"
       refY="0"
       refX="0"
       id="marker1288-3-0-3"
       style="overflow:visible"
       inkscape:isstock="true">
      <path
         inkscape:connector-curvature="0"
         id="path859-6-9-6"
         d="M 0,0 5,-5 -12.5,0 5,5 Z"
         style="fill:#181818;fill-opacity:1;fill-rule:evenodd;stroke:#181818;stroke-width:1.00000003pt;stroke-opacity:1"
         transform="matrix(-0.2,0,0,-0.2,-1.2,0)" />
    </marker>
    <marker
       inkscape:stockid="Arrow1Mend"
       orient="auto"
       refY="0"
       refX="0"
       id="marker1332-7"
       style="overflow:visible"
       inkscape:isstock="true">
      <path
         inkscape:connector-curvature="0"
         id="path1078-5"
         d="M 0,0 5,-5 -12.5,0 5,5 Z"
         style="fill:#000000;fill-opacity:1;fill-rule:evenodd;stroke:#000000;stroke-width:1.00000003pt;stroke-opacity:1"
         transform="matrix(-0.4,0,0,-0.4,-4,0)" />
    </marker>
    <marker
       inkscape:stockid="Arrow1Mend"
       orient="auto"
       refY="0"
       refX="0"
       id="marker1332-7-5"
       style="overflow:visible"
       inkscape:isstock="true">
      <path
         inkscape:connector-curvature="0"
         id="path1078-5-0"
         d="M 0,0 5,-5 -12.5,0 5,5 Z"
         style="fill:#000000;fill-opacity:1;fill-rule:evenodd;stroke:#000000;stroke-width:1.00000003pt;stroke-opacity:1"
         transform="matrix(-0.4,0,0,-0.4,-4,0)" />
    </marker>
  </defs>
  <sodipodi:namedview
     id="base"
     pagecolor="#ffffff"
     bordercolor="#666666"
     borderopacity="1.0"
     inkscape:pageopacity="0.0"
     inkscape:pageshadow="2"
     inkscape:zoom="2.8"
     inkscape:cx="179.25245"
     inkscape:cy="158.65527"
     inkscape:document-units="mm"
     inkscape:current-layer="layer1"
     showgrid="false"
     inkscape:window-width="1920"
     inkscape:window-height="1016"
     inkscape:window-x="0"
     inkscape:window-y="27"
     inkscape:window-maximized="1"
     inkscape:lockguides="true" />
  <metadata
     id="metadata5">
    <rdf:RDF>
      <cc:Work
         rdf:about="">
        <dc:format>image/svg+xml</dc:format>
        <dc:type
           rdf:resource="http://purl.org/dc/dcmitype/StillImage" />
        <dc:title></dc:title>
      </cc:Work>
    </rdf:RDF>
  </metadata>
  <g
     inkscape:label="Layer 1"
     inkscape:groupmode="layer"
     id="layer1"
     transform="translate(-17.54625,-235.81251)">
    <path
       style="fill:none;stroke:#2100ff;stroke-width:0.30466837px;stroke-linecap:butt;stroke-linejoin:miter;stroke-opacity:1"
       d="m 18.224638,241.83463 c 0,0 1.318185,-3.21098 3.025833,0.0493 1.707647,3.2604 2.696287,0 2.696287,0"
       id="path901"
       inkscape:connector-curvature="0" />
    <path
       style="fill:#000000;fill-opacity:1;stroke:#000000;stroke-width:0.47551835;stroke-linejoin:miter;stroke-miterlimit:4;stroke-dasharray:none;stroke-dashoffset:0;stroke-opacity:1;paint-order:fill markers stroke"
       id="path1044"
       sodipodi:type="arc"
       sodipodi:cx="37.642727"
       sodipodi:cy="246.12994"
       sodipodi:rx="1.2841332"
       sodipodi:ry="1.2286518"
       sodipodi:start="0"
       sodipodi:end="6.2575813"
       d="m 38.92686,246.12994 a 1.2841332,1.2286518 0 0 1 -1.275913,1.22863 1.2841332,1.2286518 0 0 1 -1.292248,-1.2129 1.2841332,1.2286518 0 0 1 1.25937,-1.24415 1.2841332,1.2286518 0 0 1 1.30837,1.19697 l -1.283712,0.0315 z" />
    <path
       style="fill:none;stroke:#000000;stroke-width:0.34579501px;stroke-linecap:butt;stroke-linejoin:miter;stroke-opacity:1"
       d="m 18.311625,246.10426 c 0,0 1.775166,-3.07156 4.074814,0.0472 2.299646,3.11883 3.631022,0 3.631022,0"
       id="path901-3"
       inkscape:connector-curvature="0" />
    <path
       style="fill:none;stroke:#ff0000;stroke-width:0.41002423px;stroke-linecap:butt;stroke-linejoin:miter;stroke-opacity:1"
       d="m 18.218225,250.38413 c 0,0 2.445934,-3.13425 5.614529,0.0481 3.168595,3.18251 5.003049,0 5.003049,0"
       id="path901-6"
       inkscape:connector-curvature="0" />
    <path
       style="fill:none;stroke:#000000;stroke-width:0.47477067px;stroke-linecap:butt;stroke-linejoin:miter;stroke-opacity:1;marker-end:url(#marker1332)"
       d="m 37.642726,246.12994 h 6.802909"
       id="path1067"
       inkscape:connector-curvature="0" />
    <text
       xml:space="preserve"
       style="font-style:normal;font-variant:normal;font-weight:normal;font-stretch:normal;font-size:3.52777767px;line-height:1.25;font-family:sans-serif;-inkscape-font-specification:'sans-serif, Normal';font-variant-ligatures:normal;font-variant-caps:normal;font-variant-numeric:normal;font-feature-settings:normal;text-align:start;letter-spacing:0px;word-spacing:0px;writing-mode:lr-tb;text-anchor:start;fill:#000000;fill-opacity:1;stroke:none;stroke-width:0.26458332"
       x="19.149084"
       y="238.4928"
       id="text1336"><tspan
         sodipodi:role="line"
         id="tspan1334"
         x="19.149084"
         y="238.4928"
         style="stroke-width:0.26458332">Particle moving in same direction</tspan></text>
    <path
       style="fill:none;stroke:#000000;stroke-width:0.26458332px;stroke-linecap:butt;stroke-linejoin:miter;stroke-opacity:1"
       d="m 53.894122,240.09641 -0.06682,11.29214 19.310223,0.0668"
       id="path1338"
       inkscape:connector-curvature="0" />
    <path
       style="fill:none;stroke:#000000;stroke-width:0.26499999;stroke-linecap:butt;stroke-linejoin:miter;stroke-miterlimit:4;stroke-dasharray:0.26499999, 0.79499996;stroke-dashoffset:0;stroke-opacity:1"
       d="m 63.916729,240.36368 -0.06682,10.95805"
       id="path1340"
       inkscape:connector-curvature="0" />
    <path
       style="fill:none;stroke:#0015ff;stroke-width:0.26458332px;stroke-linecap:butt;stroke-linejoin:miter;stroke-opacity:1"
       d="m 53.913516,241.59101 8.126486,-0.0709 1.589133,0.64929 1.222065,0.81537 0.595378,1.41542 0.65667,1.56114 0.463129,1.98658 0.387316,1.93492 0.330729,1.39379 0.354354,-1.6064 0.310734,-1.55367 0.492466,-2.06073 0.519044,-1.55944 0.733,-1.41712 0.979744,-0.72013 0.981008,-0.48467 1.889882,-0.0236"
       id="path1342"
       inkscape:connector-curvature="0"
       sodipodi:nodetypes="ccccccccccccccccc" />
    <text
       xml:space="preserve"
       style="font-style:normal;font-variant:normal;font-weight:normal;font-stretch:normal;font-size:3.52777767px;line-height:1.25;font-family:sans-serif;-inkscape-font-specification:'sans-serif, Normal';font-variant-ligatures:normal;font-variant-caps:normal;font-variant-numeric:normal;font-feature-settings:normal;text-align:start;letter-spacing:0px;word-spacing:0px;writing-mode:lr-tb;text-anchor:start;fill:#000000;fill-opacity:1;stroke:none;stroke-width:0.26458332"
       x="62.063625"
       y="253.87524"
       id="text1346"><tspan
         sodipodi:role="line"
         id="tspan1344"
         x="62.063625"
         y="253.87524"
         style="stroke-width:0.26458332">ν<tspan
   style="font-size:64.99999762%;baseline-shift:sub"
   id="tspan1348">0</tspan></tspan></text>
    <path
       style="fill:none;stroke:#2100ff;stroke-width:0.30466837px;stroke-linecap:butt;stroke-linejoin:miter;stroke-opacity:1"
       d="m 17.714285,262.30922 c 0,0 1.318185,-3.21098 3.025833,0.0493 1.707647,3.2604 2.696287,0 2.696287,0"
       id="path901-35"
       inkscape:connector-curvature="0" />
    <path
       style="fill:#000000;fill-opacity:1;stroke:#000000;stroke-width:0.47551835;stroke-linejoin:miter;stroke-miterlimit:4;stroke-dasharray:none;stroke-dashoffset:0;stroke-opacity:1;paint-order:fill markers stroke"
       id="path1044-6"
       sodipodi:type="arc"
       sodipodi:cx="37.132374"
       sodipodi:cy="266.60452"
       sodipodi:rx="1.2841332"
       sodipodi:ry="1.2286518"
       sodipodi:start="0"
       sodipodi:end="6.2575813"
       d="m 38.416507,266.60452 a 1.2841332,1.2286518 0 0 1 -1.275914,1.22863 1.2841332,1.2286518 0 0 1 -1.292247,-1.2129 1.2841332,1.2286518 0 0 1 1.25937,-1.24415 1.2841332,1.2286518 0 0 1 1.30837,1.19697 l -1.283712,0.0315 z" />
    <path
       style="fill:none;stroke:#000000;stroke-width:0.34579501px;stroke-linecap:butt;stroke-linejoin:miter;stroke-opacity:1"
       d="m 17.801272,266.57885 c 0,0 1.775166,-3.07156 4.074814,0.0472 2.299646,3.11883 3.631022,0 3.631022,0"
       id="path901-3-2"
       inkscape:connector-curvature="0" />
    <path
       style="fill:none;stroke:#ff0000;stroke-width:0.41002423px;stroke-linecap:butt;stroke-linejoin:miter;stroke-opacity:1"
       d="m 17.707872,270.85872 c 0,0 2.445934,-3.13425 5.614529,0.0481 3.168595,3.18251 5.003049,0 5.003049,0"
       id="path901-6-9"
       inkscape:connector-curvature="0" />
    <path
       style="fill:none;stroke:#000000;stroke-width:0.47477067px;stroke-linecap:butt;stroke-linejoin:miter;stroke-opacity:1;marker-end:url(#marker1332-7)"
       d="m 37.132373,266.60453 -6.627385,-0.20045"
       id="path1067-1"
       inkscape:connector-curvature="0"
       sodipodi:nodetypes="cc" />
    <text
       xml:space="preserve"
       style="font-style:normal;font-variant:normal;font-weight:normal;font-stretch:normal;font-size:3.52777767px;line-height:1.25;font-family:sans-serif;-inkscape-font-specification:'sans-serif, Normal';font-variant-ligatures:normal;font-variant-caps:normal;font-variant-numeric:normal;font-feature-settings:normal;text-align:start;letter-spacing:0px;word-spacing:0px;writing-mode:lr-tb;text-anchor:start;fill:#000000;fill-opacity:1;stroke:none;stroke-width:0.26458332"
       x="18.638731"
       y="258.96738"
       id="text1336-2"><tspan
         sodipodi:role="line"
         id="tspan1334-7"
         x="18.638731"
         y="258.96738"
         style="stroke-width:0.26458332">Particle moving in opposite direction</tspan></text>
    <path
       style="fill:none;stroke:#000000;stroke-width:0.26458332px;stroke-linecap:butt;stroke-linejoin:miter;stroke-opacity:1"
       d="m 53.383769,260.571 -0.06682,11.29214 19.310226,0.0668"
       id="path1338-0"
       inkscape:connector-curvature="0" />
    <path
       style="fill:none;stroke:#000000;stroke-width:0.26499999;stroke-linecap:butt;stroke-linejoin:miter;stroke-miterlimit:4;stroke-dasharray:0.26499999, 0.79499997;stroke-dashoffset:0;stroke-opacity:1"
       d="m 63.406376,260.83827 -0.06682,10.95805"
       id="path1340-9"
       inkscape:connector-curvature="0" />
    <path
       style="fill:none;stroke:#ff0000;stroke-width:0.26458332px;stroke-linecap:butt;stroke-linejoin:miter;stroke-opacity:1"
       d="m 53.503389,262.09901 2.513826,-0.004 1.589133,0.64929 1.222065,0.81537 0.595379,1.41542 0.656669,1.56114 0.46313,1.98658 0.387315,1.93492 0.330729,1.39379 0.354354,-1.6064 0.310735,-1.55367 0.492466,-2.06073 0.519044,-1.55944 0.732999,-1.41712 0.979744,-0.72013 1.148052,-0.80205 6.784256,0.0432"
       id="path1342-3"
       inkscape:connector-curvature="0"
       sodipodi:nodetypes="ccccccccccccccccc" />
    <text
       xml:space="preserve"
       style="font-style:normal;font-variant:normal;font-weight:normal;font-stretch:normal;font-size:3.52777767px;line-height:1.25;font-family:sans-serif;-inkscape-font-specification:'sans-serif, Normal';font-variant-ligatures:normal;font-variant-caps:normal;font-variant-numeric:normal;font-feature-settings:normal;text-align:start;letter-spacing:0px;word-spacing:0px;writing-mode:lr-tb;text-anchor:start;fill:#000000;fill-opacity:1;stroke:none;stroke-width:0.26458332"
       x="61.553272"
       y="274.34982"
       id="text1346-6"><tspan
         sodipodi:role="line"
         id="tspan1344-0"
         x="61.553272"
         y="274.34982"
         style="stroke-width:0.26458332">ν<tspan
   style="font-size:2.2930553px;baseline-shift:sub;stroke-width:0.26458332"
   id="tspan1348-6">0</tspan></tspan></text>
    <path
       style="fill:none;stroke:#2100ff;stroke-width:0.30466837px;stroke-linecap:butt;stroke-linejoin:miter;stroke-opacity:1"
       d="m 17.940876,283.15625 c 0,0 1.318185,-3.21098 3.025833,0.0493 1.707647,3.2604 2.696287,0 2.696287,0"
       id="path901-35-3"
       inkscape:connector-curvature="0" />
    <path
       style="fill:#000000;fill-opacity:1;stroke:#000000;stroke-width:0.47551835;stroke-linejoin:miter;stroke-miterlimit:4;stroke-dasharray:none;stroke-dashoffset:0;stroke-opacity:1;paint-order:fill markers stroke"
       id="path1044-6-6"
       sodipodi:type="arc"
       sodipodi:cx="37.358963"
       sodipodi:cy="287.45154"
       sodipodi:rx="1.2841332"
       sodipodi:ry="1.2286518"
       sodipodi:start="0"
       sodipodi:end="6.2575813"
       d="m 38.643096,287.45154 a 1.2841332,1.2286518 0 0 1 -1.275913,1.22862 1.2841332,1.2286518 0 0 1 -1.292248,-1.21289 1.2841332,1.2286518 0 0 1 1.25937,-1.24416 1.2841332,1.2286518 0 0 1 1.30837,1.19697 l -1.283712,0.0315 z" />
    <path
       style="fill:none;stroke:#000000;stroke-width:0.34579501px;stroke-linecap:butt;stroke-linejoin:miter;stroke-opacity:1"
       d="m 18.027863,287.42588 c 0,0 1.775166,-3.07156 4.074814,0.0472 2.299646,3.11883 3.631022,0 3.631022,0"
       id="path901-3-2-1"
       inkscape:connector-curvature="0" />
    <path
       style="fill:none;stroke:#ff0000;stroke-width:0.41002423px;stroke-linecap:butt;stroke-linejoin:miter;stroke-opacity:1"
       d="m 17.934463,291.70575 c 0,0 2.445934,-3.13425 5.614529,0.0481 3.168595,3.18251 5.003049,0 5.003049,0"
       id="path901-6-9-0"
       inkscape:connector-curvature="0" />
    <path
       style="fill:none;stroke:#000000;stroke-width:0.47477067px;stroke-linecap:butt;stroke-linejoin:miter;stroke-opacity:1;marker-end:url(#marker1332-7-5)"
       d="m 37.358964,287.45156 0.05435,-5.41221"
       id="path1067-1-6"
       inkscape:connector-curvature="0"
       sodipodi:nodetypes="cc" />
    <text
       xml:space="preserve"
       style="font-style:normal;font-variant:normal;font-weight:normal;font-stretch:normal;font-size:3.52777767px;line-height:1.25;font-family:sans-serif;-inkscape-font-specification:'sans-serif, Normal';font-variant-ligatures:normal;font-variant-caps:normal;font-variant-numeric:normal;font-feature-settings:normal;text-align:start;letter-spacing:0px;word-spacing:0px;writing-mode:lr-tb;text-anchor:start;fill:#000000;fill-opacity:1;stroke:none;stroke-width:0.26458332"
       x="18.865322"
       y="279.81439"
       id="text1336-2-3"><tspan
         sodipodi:role="line"
         id="tspan1334-7-2"
         x="18.865322"
         y="279.81439"
         style="stroke-width:0.26458332">Particle moving perpendicular</tspan></text>
    <path
       style="fill:none;stroke:#000000;stroke-width:0.26458332px;stroke-linecap:butt;stroke-linejoin:miter;stroke-opacity:1"
       d="m 53.61036,281.41803 -0.06682,11.29214 19.310229,0.0668"
       id="path1338-0-0"
       inkscape:connector-curvature="0" />
    <path
       style="fill:none;stroke:#000000;stroke-width:0.26499999;stroke-linecap:butt;stroke-linejoin:miter;stroke-miterlimit:4;stroke-dasharray:0.26499999, 0.79499998;stroke-dashoffset:0;stroke-opacity:1"
       d="m 63.632967,281.6853 -0.06682,10.95805"
       id="path1340-9-6"
       inkscape:connector-curvature="0" />
    <path
       style="fill:none;stroke:#000000;stroke-width:0.26458332px;stroke-linecap:butt;stroke-linejoin:miter;stroke-opacity:1"
       d="m 53.769973,282.85743 4.551754,0.0294 1.589135,0.64929 1.222063,0.81537 0.595382,1.41542 0.656666,1.56114 0.463132,1.98658 0.387313,1.93492 0.330729,1.39379 0.354357,-1.6064 0.310734,-1.55367 0.492467,-2.06073 0.519043,-1.55944 0.732999,-1.41712 0.979745,-0.72013 1.148051,-0.80205 4.646099,-0.0236"
       id="path1342-3-1"
       inkscape:connector-curvature="0"
       sodipodi:nodetypes="ccccccccccccccccc" />
    <text
       xml:space="preserve"
       style="font-style:normal;font-variant:normal;font-weight:normal;font-stretch:normal;font-size:3.52777767px;line-height:1.25;font-family:sans-serif;-inkscape-font-specification:'sans-serif, Normal';font-variant-ligatures:normal;font-variant-caps:normal;font-variant-numeric:normal;font-feature-settings:normal;text-align:start;letter-spacing:0px;word-spacing:0px;writing-mode:lr-tb;text-anchor:start;fill:#000000;fill-opacity:1;stroke:none;stroke-width:0.26458332"
       x="61.779861"
       y="295.19684"
       id="text1346-6-5"><tspan
         sodipodi:role="line"
         id="tspan1344-0-5"
         x="61.779861"
         y="295.19684"
         style="stroke-width:0.26458332">ν<tspan
   style="font-size:2.2930553px;baseline-shift:sub;stroke-width:0.26458332"
   id="tspan1348-6-4">0</tspan></tspan></text>
  </g>
</svg>
