<?xml version="1.0" encoding="utf-8" standalone="no"?>
<!DOCTYPE svg PUBLIC "-//W3C//DTD SVG 1.1//EN"
  "http://www.w3.org/Graphics/SVG/1.1/DTD/svg11.dtd">
<svg xmlns:xlink="http://www.w3.org/1999/xlink" width="237.6pt" height="216pt" viewBox="0 0 237.6 216" xmlns="http://www.w3.org/2000/svg" version="1.1">
 <metadata>
  <rdf:RDF xmlns:dc="http://purl.org/dc/elements/1.1/" xmlns:cc="http://creativecommons.org/ns#" xmlns:rdf="http://www.w3.org/1999/02/22-rdf-syntax-ns#">
   <cc:Work>
    <dc:type rdf:resource="http://purl.org/dc/dcmitype/StillImage"/>
    <dc:date>2024-01-18T18:29:22.850811</dc:date>
    <dc:format>image/svg+xml</dc:format>
    <dc:creator>
     <cc:Agent>
      <dc:title>Matplotlib v3.5.0, https://matplotlib.org/</dc:title>
     </cc:Agent>
    </dc:creator>
   </cc:Work>
  </rdf:RDF>
 </metadata>
 <defs>
  <style type="text/css">*{stroke-linejoin: round; stroke-linecap: butt}</style>
 </defs>
 <g id="figure_1">
  <g id="patch_1">
   <path d="M 0 216 
L 237.6 216 
L 237.6 0 
L 0 0 
L 0 216 
z
" style="fill: none"/>
  </g>
  <g id="axes_1">
   <g id="patch_2">
    <path d="M 29.7 189 
L 213.84 189 
L 213.84 25.92 
L 29.7 25.92 
z
" style="fill: #ffffff"/>
   </g>
   <g id="matplotlib.axis_1"/>
   <g id="matplotlib.axis_2"/>
   <g id="line2d_1">
    <path d="M 53.46 107.46 
L 53.56684 109.966855 
L 53.886401 112.461336 
L 54.415828 114.931255 
L 55.150433 117.364781 
L 56.083798 119.750611 
L 57.20791 122.078119 
L 58.513329 124.337487 
L 59.989379 126.519814 
L 61.624354 128.617196 
L 63.405733 130.622785 
L 65.985916 133.144321 
L 68.770963 135.481932 
L 71.72847 137.628373 
L 74.826444 139.579594 
L 78.033961 141.334485 
L 81.3217 142.894546 
L 84.66235 144.263535 
L 88.874694 145.71482 
L 93.0874 146.890737 
L 97.26327 147.808192 
L 101.371217 148.485796 
L 105.385945 148.94305 
L 110.052791 149.228662 
L 114.531338 149.258829 
L 118.804442 149.065468 
L 122.861919 148.678334 
L 127.317246 148.017955 
L 131.473124 147.169435 
L 135.335569 146.166484 
L 139.403591 144.868169 
L 143.120873 143.44234 
L 146.509105 141.91894 
L 149.955751 140.118599 
L 153.046665 138.252973 
L 155.812587 136.34337 
L 158.539518 134.189656 
L 160.936527 132.018186 
L 163.230307 129.623002 
L 165.200881 127.231105 
L 166.880239 124.849073 
L 168.295454 122.4805 
L 169.564512 119.913543 
L 170.56988 117.363877 
L 171.330228 114.829533 
L 171.859526 112.307431 
L 172.167417 109.793749 
L 172.259475 107.284222 
L 172.137363 104.774379 
L 171.798875 102.259767 
L 171.237878 99.736166 
L 170.444142 97.19984 
L 169.403062 94.647838 
L 168.095276 92.078386 
L 166.641253 89.707618 
L 164.91925 87.323781 
L 162.90147 84.930869 
L 160.782977 82.753534 
L 158.364547 80.582853 
L 155.613869 78.43089 
L 152.824371 76.523991 
L 149.70762 74.662493 
L 146.232743 72.868129 
L 142.817358 71.352019 
L 139.07102 69.9358 
L 134.972185 68.649934 
L 131.081564 67.660669 
L 126.896719 66.828906 
L 122.412121 66.188827 
L 118.329829 65.822281 
L 114.032761 65.652766 
L 109.53182 65.710304 
L 104.845031 66.027024 
L 100.81631 66.513148 
L 96.697492 67.222306 
L 92.514637 68.173922 
L 88.299652 69.386424 
L 84.090582 70.876415 
L 80.757112 72.277605 
L 77.481051 73.87065 
L 74.290074 75.658951 
L 71.213808 77.643587 
L 68.283402 79.822968 
L 65.530967 82.192518 
L 62.988903 84.744424 
L 61.239647 86.771409 
L 59.6397 88.888726 
L 58.201416 91.089284 
L 56.936286 93.364947 
L 55.854723 95.706596 
L 54.965859 98.10422 
L 54.277358 100.547026 
L 53.795257 103.023578 
L 53.523833 105.52195 
L 53.461205 107.193613 
L 53.461205 107.193613 
" clip-path="url(#p3a5662e3fc)" style="fill: none; stroke: #1f77b4; stroke-width: 1.5; stroke-linecap: square"/>
   </g>
   <g id="line2d_2">
    <path d="M 184.629477 -1 
L 174.357286 10.631048 
L 165.438558 21.041725 
L 157.299671 30.89909 
L 150.896975 38.992102 
L 145.099012 46.686169 
L 140.482762 53.162043 
L 136.325288 59.372138 
L 132.65708 65.27911 
L 129.734846 70.404786 
L 127.168707 75.365251 
L 125.12365 79.786233 
L 123.354051 84.142051 
L 121.966141 88.126992 
L 120.809895 92.129632 
L 119.952816 95.890894 
L 119.351134 99.480853 
L 118.955988 103.222067 
L 118.80277 106.895649 
L 118.883534 110.56033 
L 119.202455 114.274215 
L 119.726299 117.820603 
L 120.494505 121.517877 
L 121.545399 125.431596 
L 122.814934 129.306379 
L 124.437143 133.516688 
L 126.310907 137.762698 
L 128.656146 142.493499 
L 131.315692 147.344156 
L 134.267723 152.294638 
L 137.912978 157.970472 
L 141.919748 163.814374 
L 146.891763 170.657935 
L 152.305452 177.739739 
L 159.073552 186.205116 
L 166.34859 194.956978 
L 175.515489 205.617443 
L 185.596528 217 
L 185.596528 217 
" clip-path="url(#p3a5662e3fc)" style="fill: none; stroke: #ff7f0e; stroke-width: 1.5; stroke-linecap: square"/>
   </g>
   <g id="line2d_3">
    <defs>
     <path id="m275704908f" d="M 0 3 
C 0.795609 3 1.55874 2.683901 2.12132 2.12132 
C 2.683901 1.55874 3 0.795609 3 0 
C 3 -0.795609 2.683901 -1.55874 2.12132 -2.12132 
C 1.55874 -2.683901 0.795609 -3 0 -3 
C -0.795609 -3 -1.55874 -2.683901 -2.12132 -2.12132 
C -2.683901 -1.55874 -3 -0.795609 -3 0 
C -3 0.795609 -2.683901 1.55874 -2.12132 2.12132 
C -1.55874 2.683901 -0.795609 3 0 3 
z
" style="stroke: #2ca02c"/>
    </defs>
    <g clip-path="url(#p3a5662e3fc)">
     <use xlink:href="#m275704908f" x="148.5" y="107.46" style="fill: #2ca02c; stroke: #2ca02c"/>
    </g>
   </g>
   <g id="patch_3">
    <path d="M 29.7 189 
L 29.7 25.92 
" style="fill: none; stroke: #000000; stroke-width: 0.8; stroke-linejoin: miter; stroke-linecap: square"/>
   </g>
   <g id="patch_4">
    <path d="M 213.84 189 
L 213.84 25.92 
" style="fill: none; stroke: #000000; stroke-width: 0.8; stroke-linejoin: miter; stroke-linecap: square"/>
   </g>
   <g id="patch_5">
    <path d="M 29.7 189 
L 213.84 189 
" style="fill: none; stroke: #000000; stroke-width: 0.8; stroke-linejoin: miter; stroke-linecap: square"/>
   </g>
   <g id="patch_6">
    <path d="M 29.7 25.92 
L 213.84 25.92 
" style="fill: none; stroke: #000000; stroke-width: 0.8; stroke-linejoin: miter; stroke-linecap: square"/>
   </g>
   <g id="legend_1">
    <g id="patch_7">
     <path d="M 33.2 186.5 
L 95.317969 186.5 
Q 96.317969 186.5 96.317969 185.5 
L 96.317969 163.982812 
Q 96.317969 162.982812 95.317969 162.982812 
L 33.2 162.982812 
Q 32.2 162.982812 32.2 163.982812 
L 32.2 185.5 
Q 32.2 186.5 33.2 186.5 
z
" style="fill: #ffffff; opacity: 0.8; stroke: #cccccc; stroke-linejoin: miter"/>
    </g>
    <g id="line2d_4">
     <path d="M 34.2 167.032031 
L 39.2 167.032031 
L 44.2 167.032031 
" style="fill: none; stroke: #1f77b4; stroke-width: 1.5; stroke-linecap: square"/>
    </g>
    <g id="text_1">
     <!-- 0&lt;e&lt;1, ellipse -->
     <g transform="translate(48.2 168.782031)scale(0.05 -0.05)">
      <defs>
       <path id="DejaVuSans-30" d="M 2034 4250 
Q 1547 4250 1301 3770 
Q 1056 3291 1056 2328 
Q 1056 1369 1301 889 
Q 1547 409 2034 409 
Q 2525 409 2770 889 
Q 3016 1369 3016 2328 
Q 3016 3291 2770 3770 
Q 2525 4250 2034 4250 
z
M 2034 4750 
Q 2819 4750 3233 4129 
Q 3647 3509 3647 2328 
Q 3647 1150 3233 529 
Q 2819 -91 2034 -91 
Q 1250 -91 836 529 
Q 422 1150 422 2328 
Q 422 3509 836 4129 
Q 1250 4750 2034 4750 
z
" transform="scale(0.015625)"/>
       <path id="DejaVuSans-3c" d="M 4684 3150 
L 1459 2003 
L 4684 863 
L 4684 294 
L 678 1747 
L 678 2266 
L 4684 3719 
L 4684 3150 
z
" transform="scale(0.015625)"/>
       <path id="DejaVuSans-65" d="M 3597 1894 
L 3597 1613 
L 953 1613 
Q 991 1019 1311 708 
Q 1631 397 2203 397 
Q 2534 397 2845 478 
Q 3156 559 3463 722 
L 3463 178 
Q 3153 47 2828 -22 
Q 2503 -91 2169 -91 
Q 1331 -91 842 396 
Q 353 884 353 1716 
Q 353 2575 817 3079 
Q 1281 3584 2069 3584 
Q 2775 3584 3186 3129 
Q 3597 2675 3597 1894 
z
M 3022 2063 
Q 3016 2534 2758 2815 
Q 2500 3097 2075 3097 
Q 1594 3097 1305 2825 
Q 1016 2553 972 2059 
L 3022 2063 
z
" transform="scale(0.015625)"/>
       <path id="DejaVuSans-31" d="M 794 531 
L 1825 531 
L 1825 4091 
L 703 3866 
L 703 4441 
L 1819 4666 
L 2450 4666 
L 2450 531 
L 3481 531 
L 3481 0 
L 794 0 
L 794 531 
z
" transform="scale(0.015625)"/>
       <path id="DejaVuSans-2c" d="M 750 794 
L 1409 794 
L 1409 256 
L 897 -744 
L 494 -744 
L 750 256 
L 750 794 
z
" transform="scale(0.015625)"/>
       <path id="DejaVuSans-20" transform="scale(0.015625)"/>
       <path id="DejaVuSans-6c" d="M 603 4863 
L 1178 4863 
L 1178 0 
L 603 0 
L 603 4863 
z
" transform="scale(0.015625)"/>
       <path id="DejaVuSans-69" d="M 603 3500 
L 1178 3500 
L 1178 0 
L 603 0 
L 603 3500 
z
M 603 4863 
L 1178 4863 
L 1178 4134 
L 603 4134 
L 603 4863 
z
" transform="scale(0.015625)"/>
       <path id="DejaVuSans-70" d="M 1159 525 
L 1159 -1331 
L 581 -1331 
L 581 3500 
L 1159 3500 
L 1159 2969 
Q 1341 3281 1617 3432 
Q 1894 3584 2278 3584 
Q 2916 3584 3314 3078 
Q 3713 2572 3713 1747 
Q 3713 922 3314 415 
Q 2916 -91 2278 -91 
Q 1894 -91 1617 61 
Q 1341 213 1159 525 
z
M 3116 1747 
Q 3116 2381 2855 2742 
Q 2594 3103 2138 3103 
Q 1681 3103 1420 2742 
Q 1159 2381 1159 1747 
Q 1159 1113 1420 752 
Q 1681 391 2138 391 
Q 2594 391 2855 752 
Q 3116 1113 3116 1747 
z
" transform="scale(0.015625)"/>
       <path id="DejaVuSans-73" d="M 2834 3397 
L 2834 2853 
Q 2591 2978 2328 3040 
Q 2066 3103 1784 3103 
Q 1356 3103 1142 2972 
Q 928 2841 928 2578 
Q 928 2378 1081 2264 
Q 1234 2150 1697 2047 
L 1894 2003 
Q 2506 1872 2764 1633 
Q 3022 1394 3022 966 
Q 3022 478 2636 193 
Q 2250 -91 1575 -91 
Q 1294 -91 989 -36 
Q 684 19 347 128 
L 347 722 
Q 666 556 975 473 
Q 1284 391 1588 391 
Q 1994 391 2212 530 
Q 2431 669 2431 922 
Q 2431 1156 2273 1281 
Q 2116 1406 1581 1522 
L 1381 1569 
Q 847 1681 609 1914 
Q 372 2147 372 2553 
Q 372 3047 722 3315 
Q 1072 3584 1716 3584 
Q 2034 3584 2315 3537 
Q 2597 3491 2834 3397 
z
" transform="scale(0.015625)"/>
      </defs>
      <use xlink:href="#DejaVuSans-30"/>
      <use xlink:href="#DejaVuSans-3c" x="63.623047"/>
      <use xlink:href="#DejaVuSans-65" x="147.412109"/>
      <use xlink:href="#DejaVuSans-3c" x="208.935547"/>
      <use xlink:href="#DejaVuSans-31" x="292.724609"/>
      <use xlink:href="#DejaVuSans-2c" x="356.347656"/>
      <use xlink:href="#DejaVuSans-20" x="388.134766"/>
      <use xlink:href="#DejaVuSans-65" x="419.921875"/>
      <use xlink:href="#DejaVuSans-6c" x="481.445312"/>
      <use xlink:href="#DejaVuSans-6c" x="509.228516"/>
      <use xlink:href="#DejaVuSans-69" x="537.011719"/>
      <use xlink:href="#DejaVuSans-70" x="564.794922"/>
      <use xlink:href="#DejaVuSans-73" x="628.271484"/>
      <use xlink:href="#DejaVuSans-65" x="680.371094"/>
     </g>
    </g>
    <g id="line2d_5">
     <path d="M 34.2 174.371094 
L 39.2 174.371094 
L 44.2 174.371094 
" style="fill: none; stroke: #ff7f0e; stroke-width: 1.5; stroke-linecap: square"/>
    </g>
    <g id="text_2">
     <!-- 0&lt;e&lt;1, hyperbola -->
     <g transform="translate(48.2 176.121094)scale(0.05 -0.05)">
      <defs>
       <path id="DejaVuSans-68" d="M 3513 2113 
L 3513 0 
L 2938 0 
L 2938 2094 
Q 2938 2591 2744 2837 
Q 2550 3084 2163 3084 
Q 1697 3084 1428 2787 
Q 1159 2491 1159 1978 
L 1159 0 
L 581 0 
L 581 4863 
L 1159 4863 
L 1159 2956 
Q 1366 3272 1645 3428 
Q 1925 3584 2291 3584 
Q 2894 3584 3203 3211 
Q 3513 2838 3513 2113 
z
" transform="scale(0.015625)"/>
       <path id="DejaVuSans-79" d="M 2059 -325 
Q 1816 -950 1584 -1140 
Q 1353 -1331 966 -1331 
L 506 -1331 
L 506 -850 
L 844 -850 
Q 1081 -850 1212 -737 
Q 1344 -625 1503 -206 
L 1606 56 
L 191 3500 
L 800 3500 
L 1894 763 
L 2988 3500 
L 3597 3500 
L 2059 -325 
z
" transform="scale(0.015625)"/>
       <path id="DejaVuSans-72" d="M 2631 2963 
Q 2534 3019 2420 3045 
Q 2306 3072 2169 3072 
Q 1681 3072 1420 2755 
Q 1159 2438 1159 1844 
L 1159 0 
L 581 0 
L 581 3500 
L 1159 3500 
L 1159 2956 
Q 1341 3275 1631 3429 
Q 1922 3584 2338 3584 
Q 2397 3584 2469 3576 
Q 2541 3569 2628 3553 
L 2631 2963 
z
" transform="scale(0.015625)"/>
       <path id="DejaVuSans-62" d="M 3116 1747 
Q 3116 2381 2855 2742 
Q 2594 3103 2138 3103 
Q 1681 3103 1420 2742 
Q 1159 2381 1159 1747 
Q 1159 1113 1420 752 
Q 1681 391 2138 391 
Q 2594 391 2855 752 
Q 3116 1113 3116 1747 
z
M 1159 2969 
Q 1341 3281 1617 3432 
Q 1894 3584 2278 3584 
Q 2916 3584 3314 3078 
Q 3713 2572 3713 1747 
Q 3713 922 3314 415 
Q 2916 -91 2278 -91 
Q 1894 -91 1617 61 
Q 1341 213 1159 525 
L 1159 0 
L 581 0 
L 581 4863 
L 1159 4863 
L 1159 2969 
z
" transform="scale(0.015625)"/>
       <path id="DejaVuSans-6f" d="M 1959 3097 
Q 1497 3097 1228 2736 
Q 959 2375 959 1747 
Q 959 1119 1226 758 
Q 1494 397 1959 397 
Q 2419 397 2687 759 
Q 2956 1122 2956 1747 
Q 2956 2369 2687 2733 
Q 2419 3097 1959 3097 
z
M 1959 3584 
Q 2709 3584 3137 3096 
Q 3566 2609 3566 1747 
Q 3566 888 3137 398 
Q 2709 -91 1959 -91 
Q 1206 -91 779 398 
Q 353 888 353 1747 
Q 353 2609 779 3096 
Q 1206 3584 1959 3584 
z
" transform="scale(0.015625)"/>
       <path id="DejaVuSans-61" d="M 2194 1759 
Q 1497 1759 1228 1600 
Q 959 1441 959 1056 
Q 959 750 1161 570 
Q 1363 391 1709 391 
Q 2188 391 2477 730 
Q 2766 1069 2766 1631 
L 2766 1759 
L 2194 1759 
z
M 3341 1997 
L 3341 0 
L 2766 0 
L 2766 531 
Q 2569 213 2275 61 
Q 1981 -91 1556 -91 
Q 1019 -91 701 211 
Q 384 513 384 1019 
Q 384 1609 779 1909 
Q 1175 2209 1959 2209 
L 2766 2209 
L 2766 2266 
Q 2766 2663 2505 2880 
Q 2244 3097 1772 3097 
Q 1472 3097 1187 3025 
Q 903 2953 641 2809 
L 641 3341 
Q 956 3463 1253 3523 
Q 1550 3584 1831 3584 
Q 2591 3584 2966 3190 
Q 3341 2797 3341 1997 
z
" transform="scale(0.015625)"/>
      </defs>
      <use xlink:href="#DejaVuSans-30"/>
      <use xlink:href="#DejaVuSans-3c" x="63.623047"/>
      <use xlink:href="#DejaVuSans-65" x="147.412109"/>
      <use xlink:href="#DejaVuSans-3c" x="208.935547"/>
      <use xlink:href="#DejaVuSans-31" x="292.724609"/>
      <use xlink:href="#DejaVuSans-2c" x="356.347656"/>
      <use xlink:href="#DejaVuSans-20" x="388.134766"/>
      <use xlink:href="#DejaVuSans-68" x="419.921875"/>
      <use xlink:href="#DejaVuSans-79" x="483.300781"/>
      <use xlink:href="#DejaVuSans-70" x="542.480469"/>
      <use xlink:href="#DejaVuSans-65" x="605.957031"/>
      <use xlink:href="#DejaVuSans-72" x="667.480469"/>
      <use xlink:href="#DejaVuSans-62" x="708.59375"/>
      <use xlink:href="#DejaVuSans-6f" x="772.070312"/>
      <use xlink:href="#DejaVuSans-6c" x="833.251953"/>
      <use xlink:href="#DejaVuSans-61" x="861.035156"/>
     </g>
    </g>
    <g id="line2d_6">
     <g>
      <use xlink:href="#m275704908f" x="39.2" y="181.710156" style="fill: #2ca02c; stroke: #2ca02c"/>
     </g>
    </g>
    <g id="text_3">
     <!-- Focus -->
     <g transform="translate(48.2 183.460156)scale(0.05 -0.05)">
      <defs>
       <path id="DejaVuSans-46" d="M 628 4666 
L 3309 4666 
L 3309 4134 
L 1259 4134 
L 1259 2759 
L 3109 2759 
L 3109 2228 
L 1259 2228 
L 1259 0 
L 628 0 
L 628 4666 
z
" transform="scale(0.015625)"/>
       <path id="DejaVuSans-63" d="M 3122 3366 
L 3122 2828 
Q 2878 2963 2633 3030 
Q 2388 3097 2138 3097 
Q 1578 3097 1268 2742 
Q 959 2388 959 1747 
Q 959 1106 1268 751 
Q 1578 397 2138 397 
Q 2388 397 2633 464 
Q 2878 531 3122 666 
L 3122 134 
Q 2881 22 2623 -34 
Q 2366 -91 2075 -91 
Q 1284 -91 818 406 
Q 353 903 353 1747 
Q 353 2603 823 3093 
Q 1294 3584 2113 3584 
Q 2378 3584 2631 3529 
Q 2884 3475 3122 3366 
z
" transform="scale(0.015625)"/>
       <path id="DejaVuSans-75" d="M 544 1381 
L 544 3500 
L 1119 3500 
L 1119 1403 
Q 1119 906 1312 657 
Q 1506 409 1894 409 
Q 2359 409 2629 706 
Q 2900 1003 2900 1516 
L 2900 3500 
L 3475 3500 
L 3475 0 
L 2900 0 
L 2900 538 
Q 2691 219 2414 64 
Q 2138 -91 1772 -91 
Q 1169 -91 856 284 
Q 544 659 544 1381 
z
M 1991 3584 
L 1991 3584 
z
" transform="scale(0.015625)"/>
      </defs>
      <use xlink:href="#DejaVuSans-46"/>
      <use xlink:href="#DejaVuSans-6f" x="53.894531"/>
      <use xlink:href="#DejaVuSans-63" x="115.076172"/>
      <use xlink:href="#DejaVuSans-75" x="170.056641"/>
      <use xlink:href="#DejaVuSans-73" x="233.435547"/>
     </g>
    </g>
   </g>
  </g>
 </g>
 <defs>
  <clipPath id="p3a5662e3fc">
   <rect x="29.7" y="25.92" width="184.14" height="163.08"/>
  </clipPath>
 </defs>
</svg>
